<svg xmlns="http://www.w3.org/2000/svg" viewBox="0 0 100.538 100.538" width="1024" height="1024">
<path d="M78.300 100.537L22.238 100.537C9.956 100.537 0.000 90.581 0.000 78.299L0.000 22.237C0.000 9.956 9.956 0.000 22.238 0.000L78.300 0.000C90.581 0.000 100.538 9.956 100.538 22.237L100.538 78.299C100.538 90.581 90.581 100.537 78.300 100.537" fill="#2E372E" fill-rule="nonzero"/>
<path d="M44.169 57.236L46.011 53.363L46.320 52.754C47.686 50.063 49.087 47.459 50.756 44.930C52.525 42.249 54.370 39.716 56.443 37.263C61.761 30.970 69.213 26.163 77.164 24.029C77.295 24.160 77.347 24.345 77.327 24.508C73.465 26.862 70.148 29.957 67.466 33.564C67.386 33.672 67.275 33.831 67.203 33.927L66.381 35.026L66.095 35.406C64.989 36.875 64.026 38.459 63.138 40.117L62.853 40.649L61.853 42.568C61.713 42.681 61.682 42.845 61.621 43.000L61.463 43.403L60.157 46.293L57.069 53.837L56.605 54.937L55.939 56.559L53.971 61.235L52.867 63.890L52.464 64.856L51.750 66.558L50.269 69.991" fill="#F4EDE6" fill-rule="nonzero"/>
<path d="M95.967 13.255C95.992 13.492 95.934 13.708 95.858 13.909C95.830 13.945 95.793 13.987 95.762 14.018L95.130 14.636L94.458 15.280L93.126 16.458L90.982 18.277C90.624 18.580 90.399 18.925 90.236 19.379L87.464 27.106C87.318 27.513 87.274 27.951 86.982 28.187L86.877 28.271L86.699 28.448L85.780 29.114C85.737 29.042 85.530 29.009 85.565 28.870L85.641 28.567C85.695 28.351 85.743 28.135 85.731 27.912L85.372 21.185L80.686 23.265L80.085 25.613L80.079 25.708L80.007 25.825L79.556 26.252C79.408 26.392 79.185 26.487 78.901 26.535C78.812 25.548 78.718 24.608 78.431 23.671C78.281 23.183 77.890 22.848 77.484 22.585L75.491 21.294C76.041 20.650 76.909 20.479 77.679 20.749L79.572 21.413L83.652 18.815L77.871 15.521L76.141 14.594L76.820 14.116C76.902 14.101 76.973 14.071 77.037 14.020C77.177 14.017 77.329 13.966 77.462 13.923C77.712 13.843 77.940 13.892 78.196 13.922L78.456 13.952C78.515 13.981 78.588 14.010 78.652 14.009C78.752 14.006 78.848 14.036 78.936 14.054L86.819 15.719C87.766 15.919 88.594 15.728 89.411 15.246L92.227 13.586C93.244 12.986 95.160 12.512 95.967 13.255" fill="#F4EDE6" fill-rule="nonzero"/>
<path d="M50.269 69.991L45.808 80.238L42.983 86.378L42.027 87.985C41.894 88.207 41.680 88.321 41.463 88.331C41.214 88.343 41.012 88.233 40.868 88.016L40.105 86.867C39.983 86.683 39.963 86.601 39.858 86.389L39.232 85.124L38.807 84.167L38.186 82.777L36.847 79.814L35.717 77.341L26.835 57.436L23.073 49.136L22.503 47.858L21.223 45.018L20.810 44.034C20.754 43.899 20.681 43.821 20.571 43.836C20.509 43.674 20.549 43.517 20.453 43.307L19.934 42.176L19.399 41.071C18.861 39.959 18.286 38.898 17.597 37.822C15.895 35.168 13.383 33.255 10.396 32.355C10.324 32.332 10.203 32.379 10.128 32.393C10.087 32.257 9.975 32.222 9.853 32.193L8.587 31.887C7.923 31.726 7.246 31.661 6.573 31.594C6.081 31.546 5.585 31.457 5.079 31.442L4.546 31.426C4.333 31.418 4.030 31.332 3.852 31.170C3.772 31.097 3.835 30.936 3.926 30.907L4.186 30.825L6.650 30.692L6.744 30.707L17.715 30.305C20.110 30.216 22.382 30.270 24.739 30.597C26.971 30.907 29.058 31.538 30.978 32.618L32.332 33.518C32.370 33.543 32.427 33.572 32.428 33.623C33.537 34.605 34.522 35.716 35.150 37.112L37.023 41.270L38.821 45.502L39.078 46.079L44.169 57.236Z" fill="#F4EDE6" fill-opacity="0.7" fill-rule="nonzero"/>
<path d="M37.506 50.251L26.509 50.268C25.503 50.270 24.851 48.808 25.166 48.224C25.311 47.956 25.572 47.675 25.968 47.675L36.919 47.681C37.827 47.682 38.441 49.084 38.189 49.656C38.101 49.855 37.917 50.250 37.506 50.251" fill="#2E372E" fill-rule="nonzero"/>
<path d="M39.709 54.803L28.528 54.777C27.750 54.775 26.875 53.542 27.465 52.803C27.629 52.597 27.905 52.476 28.252 52.476L38.754 52.461C39.501 52.460 39.941 52.817 40.216 53.393C40.469 53.923 40.443 54.529 39.709 54.803" fill="#2E372E" fill-rule="nonzero"/>
<path d="M23.691 43.075C23.812 43.249 24.515 43.260 25.042 43.249L27.070 43.205L33.367 43.194C33.832 43.193 34.271 43.272 34.740 43.174L34.963 43.206C34.994 43.210 35.002 43.137 35.009 43.088C35.578 43.092 36.395 44.282 36.090 45.038C36.005 45.250 35.756 45.610 35.409 45.609L24.259 45.597C23.574 45.596 23.165 44.853 23.014 44.308C22.870 43.788 23.100 43.082 23.691 43.075" fill="#2E372E" fill-rule="nonzero"/>
</svg>